<svg xmlns="http://www.w3.org/2000/svg" viewBox="0 0 512 512" width="512" height="512">
  <defs>
    <linearGradient id="bg" x1="0" y1="0" x2="1" y2="1">
      <stop offset="0" stop-color="#0d3b66"/>
      <stop offset="1" stop-color="#1b6ca8"/>
    </linearGradient>
  </defs>
  <rect width="512" height="512" rx="96" fill="url(#bg)"/>
  <g fill="none" stroke="#ffffff" stroke-width="26" stroke-linecap="round">
    <line x1="256" y1="96" x2="256" y2="416"/>
    <line x1="118" y1="176" x2="394" y2="336"/>
    <line x1="394" y1="176" x2="118" y2="336"/>
    <g stroke-width="22">
      <path d="M256 96 l-40 40 M256 96 l40 40"/>
      <path d="M256 416 l-40 -40 M256 416 l40 -40"/>
      <path d="M118 176 l6 56 M118 176 l54 -14"/>
      <path d="M394 336 l-6 -56 M394 336 l-54 14"/>
      <path d="M394 176 l-54 -14 M394 176 l6 56"/>
      <path d="M118 336 l54 14 M118 336 l-6 -56"/>
    </g>
  </g>
</svg>
